<?xml version="1.0" encoding="UTF-8"?>
<!DOCTYPE svg PUBLIC "-//W3C//DTD SVG 1.1//EN" "http://www.w3.org/Graphics/SVG/1.1/DTD/svg11.dtd">
<svg xmlns="http://www.w3.org/2000/svg" version="1.1" width="512px" height="512px" style="shape-rendering:geometricPrecision; text-rendering:geometricPrecision; image-rendering:optimizeQuality; fill-rule:evenodd; clip-rule:evenodd" xmlns:xlink="http://www.w3.org/1999/xlink">
<g><path style="opacity:0.989" fill="#ff0000" d="M 193.5,97.5 C 234.835,97.3333 276.168,97.5 317.5,98C 348.899,98.4699 380.232,100.137 411.5,103C 437.507,103.408 456.674,114.908 469,137.5C 473.922,152.445 476.922,167.779 478,183.5C 482.841,234.534 482.508,285.534 477,336.5C 475.738,349.145 473.071,361.478 469,373.5C 460.544,389.96 447.378,400.46 429.5,405C 416.282,407.565 402.949,409.232 389.5,410C 300.167,414.667 210.833,414.667 121.5,410C 108.051,409.232 94.7178,407.565 81.5,405C 54.3903,396.884 39.2237,378.717 36,350.5C 28.248,291.919 27.5813,233.253 34,174.5C 35.2976,160.31 38.631,146.643 44,133.5C 52.6799,119.081 65.1799,109.914 81.5,106C 94.7178,103.435 108.051,101.768 121.5,101C 145.647,99.5591 169.647,98.3924 193.5,97.5 Z"/></g>
<g><path style="opacity:1" fill="#ffbdbd" d="M 212.5,189.5 C 211.167,233.5 211.167,277.5 212.5,321.5C 212.44,322.043 212.107,322.376 211.5,322.5C 210.167,277.833 210.167,233.167 211.5,188.5C 212.107,188.624 212.44,188.957 212.5,189.5 Z"/></g>
<g><path style="opacity:1" fill="#fffdfd" d="M 212.5,189.5 C 214.938,191.267 217.605,192.601 220.5,193.5C 220.973,194.906 221.973,195.573 223.5,195.5C 224.514,196.674 225.847,197.34 227.5,197.5C 227.973,198.906 228.973,199.573 230.5,199.5C 235.502,203.003 240.835,206.003 246.5,208.5C 246.973,209.906 247.973,210.573 249.5,210.5C 250.514,211.674 251.847,212.34 253.5,212.5C 253.973,213.906 254.973,214.573 256.5,214.5C 261.502,218.003 266.835,221.003 272.5,223.5C 272.973,224.906 273.973,225.573 275.5,225.5C 282.905,230.226 290.572,234.559 298.5,238.5C 298.973,239.906 299.973,240.573 301.5,240.5C 309.218,245.53 317.218,250.197 325.5,254.5C 325.443,255.609 325.11,256.609 324.5,257.5C 318.835,259.997 313.502,262.997 308.5,266.5C 306.973,266.427 305.973,267.094 305.5,268.5C 303.847,268.66 302.514,269.326 301.5,270.5C 299.973,270.427 298.973,271.094 298.5,272.5C 292.835,274.997 287.502,277.997 282.5,281.5C 280.973,281.427 279.973,282.094 279.5,283.5C 277.847,283.66 276.514,284.326 275.5,285.5C 273.973,285.427 272.973,286.094 272.5,287.5C 266.835,289.997 261.502,292.997 256.5,296.5C 254.973,296.427 253.973,297.094 253.5,298.5C 251.847,298.66 250.514,299.326 249.5,300.5C 247.973,300.427 246.973,301.094 246.5,302.5C 243.24,303.774 240.24,305.44 237.5,307.5C 235.973,307.427 234.973,308.094 234.5,309.5C 232.847,309.66 231.514,310.326 230.5,311.5C 228.973,311.427 227.973,312.094 227.5,313.5C 222.368,315.9 217.368,318.566 212.5,321.5C 211.167,277.5 211.167,233.5 212.5,189.5 Z"/></g>
<g><path style="opacity:1" fill="#ff716b" d="M 220.5,193.5 C 222.027,193.427 223.027,194.094 223.5,195.5C 221.973,195.573 220.973,194.906 220.5,193.5 Z"/></g>
<g><path style="opacity:1" fill="#ff6b66" d="M 227.5,197.5 C 229.027,197.427 230.027,198.094 230.5,199.5C 228.973,199.573 227.973,198.906 227.5,197.5 Z"/></g>
<g><path style="opacity:1" fill="#ff6f6a" d="M 246.5,208.5 C 248.027,208.427 249.027,209.094 249.5,210.5C 247.973,210.573 246.973,209.906 246.5,208.5 Z"/></g>
<g><path style="opacity:1" fill="#ff6a64" d="M 253.5,212.5 C 255.027,212.427 256.027,213.094 256.5,214.5C 254.973,214.573 253.973,213.906 253.5,212.5 Z"/></g>
<g><path style="opacity:1" fill="#ff6e68" d="M 272.5,223.5 C 274.027,223.427 275.027,224.094 275.5,225.5C 273.973,225.573 272.973,224.906 272.5,223.5 Z"/></g>
<g><path style="opacity:1" fill="#ff6c67" d="M 298.5,238.5 C 300.027,238.427 301.027,239.094 301.5,240.5C 299.973,240.573 298.973,239.906 298.5,238.5 Z"/></g>
<g><path style="opacity:1" fill="#ff6e69" d="M 325.5,254.5 C 328.015,255.86 327.682,256.86 324.5,257.5C 325.11,256.609 325.443,255.609 325.5,254.5 Z"/></g>
<g><path style="opacity:1" fill="#ff5750" d="M 308.5,266.5 C 308.027,267.906 307.027,268.573 305.5,268.5C 305.973,267.094 306.973,266.427 308.5,266.5 Z"/></g>
<g><path style="opacity:1" fill="#ff5c55" d="M 301.5,270.5 C 301.027,271.906 300.027,272.573 298.5,272.5C 298.973,271.094 299.973,270.427 301.5,270.5 Z"/></g>
<g><path style="opacity:1" fill="#ff5852" d="M 282.5,281.5 C 282.027,282.906 281.027,283.573 279.5,283.5C 279.973,282.094 280.973,281.427 282.5,281.5 Z"/></g>
<g><path style="opacity:1" fill="#ff5e57" d="M 275.5,285.5 C 275.027,286.906 274.027,287.573 272.5,287.5C 272.973,286.094 273.973,285.427 275.5,285.5 Z"/></g>
<g><path style="opacity:1" fill="#ff5a53" d="M 256.5,296.5 C 256.027,297.906 255.027,298.573 253.5,298.5C 253.973,297.094 254.973,296.427 256.5,296.5 Z"/></g>
<g><path style="opacity:1" fill="#ff5f58" d="M 249.5,300.5 C 249.027,301.906 248.027,302.573 246.5,302.5C 246.973,301.094 247.973,300.427 249.5,300.5 Z"/></g>
<g><path style="opacity:1" fill="#ff564f" d="M 237.5,307.5 C 237.027,308.906 236.027,309.573 234.5,309.5C 234.973,308.094 235.973,307.427 237.5,307.5 Z"/></g>
<g><path style="opacity:1" fill="#ff5b55" d="M 230.5,311.5 C 230.027,312.906 229.027,313.573 227.5,313.5C 227.973,312.094 228.973,311.427 230.5,311.5 Z"/></g>
</svg>
